<?xml version="1.0" standalone="no"?>
<!DOCTYPE svg PUBLIC "-//W3C//DTD SVG 20010904//EN"
 "http://www.w3.org/TR/2001/REC-SVG-20010904/DTD/svg10.dtd">
<svg version="1.0" xmlns="http://www.w3.org/2000/svg"
 width="1300.000000pt" height="1294.000000pt" viewBox="0 0 1300.000000 1294.000000"
 preserveAspectRatio="xMidYMid meet">

<g transform="translate(0.000000,1294.000000) scale(0.100000,-0.100000)"
fill="#000000" stroke="none">
<path d="M6470 12560 l0 -380 65 0 65 0 2 272 3 272 179 -272 178 -272 64 0
64 0 0 380 0 380 -65 0 -65 0 -2 -272 -3 -272 -179 272 -178 272 -64 0 -64 0
0 -380z"/>
<path d="M6783 11863 c-6 -49 -131 -1039 -277 -2202 -147 -1163 -266 -2120
-264 -2127 2 -7 107 -93 235 -192 l232 -179 80 1 80 1 245 190 c198 152 245
194 242 210 -2 11 -127 1002 -277 2202 -151 1201 -277 2183 -280 2183 -3 0
-10 -39 -16 -87z"/>
<path d="M6330 10544 c-508 -61 -955 -197 -1403 -426 -553 -284 -1033 -686
-1409 -1183 -77 -102 -233 -344 -309 -480 -268 -479 -454 -1086 -495 -1618
l-7 -88 24 5 c13 3 121 17 239 32 118 14 216 27 217 28 2 1 10 56 18 122 50
384 166 769 334 1110 l76 154 245 -141 c135 -78 247 -143 249 -145 2 -2 -21
-57 -52 -122 -68 -143 -88 -193 -139 -342 -65 -192 -144 -538 -126 -556 4 -3
85 5 182 17 l175 23 11 55 c43 220 119 440 230 666 358 732 1027 1258 1829
1438 62 14 115 27 117 29 3 4 44 315 44 341 0 23 -20 22 -186 -12 -257 -53
-511 -139 -737 -249 -64 -31 -101 -44 -106 -37 -19 24 -283 486 -280 489 14
13 252 126 349 166 299 123 679 221 950 246 38 4 73 10 79 14 8 4 70 421 71
478 0 5 -81 -1 -190 -14z m-1272 -1247 c73 -126 132 -232 132 -236 0 -9 -165
-121 -178 -121 -8 0 -322 398 -345 438 -10 16 -9 17 136 114 91 61 102 66 112
50 7 -9 71 -120 143 -245z m-370 -253 l174 -226 -44 -36 c-164 -137 -362 -357
-501 -553 -47 -68 -92 -131 -99 -140 -12 -15 -39 -2 -258 126 -152 89 -244
148 -242 157 6 23 129 202 211 308 127 163 282 331 429 465 75 69 142 125 147
124 6 0 88 -101 183 -225z"/>
<path d="M7080 10559 c0 -25 61 -472 64 -478 3 -4 38 -11 78 -15 169 -15 472
-79 668 -141 208 -66 630 -250 630 -276 0 -5 -63 -119 -141 -254 l-141 -244
-90 45 c-194 97 -458 191 -668 238 -156 34 -250 50 -257 42 -8 -8 34 -347 44
-356 4 -4 49 -15 98 -25 350 -67 734 -244 1060 -489 134 -101 367 -327 469
-456 250 -315 452 -737 527 -1105 12 -60 23 -111 24 -113 1 -1 84 -13 184 -25
161 -21 181 -22 181 -8 0 9 -13 81 -30 161 -54 270 -124 481 -241 728 l-58
122 22 14 c12 8 110 64 217 126 107 62 210 121 228 132 l32 20 79 -164 c170
-350 290 -756 333 -1120 l12 -108 31 -5 c41 -7 429 -55 443 -55 13 0 12 17
-14 240 -86 723 -399 1461 -870 2050 -123 154 -361 401 -509 529 -604 523
-1358 862 -2145 965 -136 18 -260 29 -260 25z m1827 -1145 c152 -108 327 -260
478 -415 139 -142 222 -236 214 -243 -30 -25 -448 -346 -451 -346 -3 0 -47 47
-98 105 -146 166 -353 344 -550 475 -52 35 -96 64 -98 65 -3 3 233 416 274
482 l14 22 61 -39 c33 -21 103 -69 156 -106z m902 -932 c39 -59 71 -112 71
-117 0 -9 -102 -69 -440 -262 l-55 -31 -62 93 -63 94 227 175 c160 123 230
172 239 165 6 -5 44 -58 83 -117z"/>
<path d="M3492 6752 c-1206 -153 -2184 -280 -2175 -284 15 -6 4314 -547 4379
-552 16 -1 62 52 203 232 l181 232 0 80 0 80 -191 245 c-106 135 -195 245
-198 244 -3 -1 -993 -125 -2199 -277z"/>
<path d="M7683 6783 l-193 -248 0 -80 0 -80 176 -225 c97 -124 180 -229 184
-234 5 -5 957 111 2224 270 1219 153 2212 281 2208 284 -4 4 -988 129 -2187
279 -1199 150 -2189 275 -2200 277 -16 4 -57 -42 -212 -243z"/>
<path d="M6668 6905 c-229 -63 -377 -289 -339 -517 38 -233 220 -388 456 -388
236 0 418 155 456 388 38 231 -111 456 -344 518 -64 17 -166 17 -229 -1z"/>
<path d="M4 6843 c3 -10 42 -164 86 -343 45 -179 85 -342 91 -362 l10 -38 77
0 77 0 74 273 c41 149 77 277 80 284 4 7 35 -94 71 -225 35 -130 70 -258 78
-284 l14 -48 76 0 77 0 93 373 c51 204 92 376 92 380 0 4 -30 7 -67 5 l-68 -3
-60 -285 c-34 -157 -63 -291 -66 -299 -3 -8 -40 116 -83 275 -42 159 -79 295
-81 302 -3 8 -27 12 -73 12 l-69 0 -78 -292 c-43 -161 -81 -297 -83 -303 -5
-7 -50 193 -122 543 l-11 52 -70 0 c-62 0 -70 -2 -65 -17z"/>
<path d="M12560 6480 l0 -380 215 0 215 0 0 50 0 50 -155 0 -155 0 0 115 0
115 140 0 140 0 0 50 0 50 -140 0 -140 0 0 115 0 115 155 0 155 0 0 50 0 50
-215 0 -215 0 0 -380z"/>
<path d="M2710 6157 c0 -17 7 -91 15 -162 100 -861 471 -1666 1065 -2314 590
-643 1438 -1104 2300 -1250 152 -26 409 -55 417 -47 9 9 -49 470 -60 477 -5 4
-43 10 -86 13 -258 24 -645 125 -941 246 -97 40 -335 153 -349 166 -3 3 261
465 280 489 5 7 42 -6 106 -37 263 -128 621 -241 872 -273 l54 -7 -6 33 c-3
19 -14 99 -23 179 -9 80 -18 146 -19 148 -2 2 -54 14 -116 28 -1021 228 -1814
1021 -2045 2045 -14 62 -27 115 -29 117 -2 2 -83 14 -179 26 l-176 22 0 -27
c0 -75 68 -363 128 -539 51 -149 71 -198 139 -342 31 -65 54 -120 52 -122 -2
-2 -114 -67 -249 -145 l-245 -141 -76 154 c-169 343 -284 725 -334 1110 -8 66
-17 121 -19 124 -4 3 -436 61 -463 62 -8 0 -13 -13 -13 -33z m1564 -1385 c31
-45 56 -86 56 -90 -1 -7 -434 -344 -450 -350 -8 -3 -156 214 -162 236 -3 15
483 303 493 293 4 -3 32 -43 63 -89z m253 -327 c155 -176 366 -361 566 -493
53 -36 97 -69 97 -73 0 -6 -276 -488 -284 -496 -8 -9 -302 200 -413 294 -195
163 -488 463 -488 499 0 14 434 357 445 352 4 -2 38 -39 77 -83z"/>
<path d="M10634 6157 l-231 -30 -7 -67 c-34 -366 -173 -834 -358 -1203 l-59
-118 -32 19 c-18 11 -120 70 -227 132 -107 62 -205 118 -217 126 l-22 14 58
122 c77 163 133 310 177 460 39 135 100 426 91 434 -7 7 -350 -36 -358 -44 -4
-4 -17 -54 -29 -112 -77 -368 -277 -787 -526 -1100 -102 -129 -335 -355 -469
-456 -326 -244 -697 -415 -1065 -490 -47 -10 -89 -21 -95 -26 -10 -9 -57 -349
-49 -357 5 -6 131 16 264 45 211 47 475 141 668 238 l90 45 141 -244 c78 -135
141 -249 141 -255 0 -25 -422 -209 -630 -275 -200 -63 -497 -126 -662 -142
-37 -3 -74 -11 -82 -17 -9 -7 -22 -82 -40 -226 -15 -118 -26 -223 -26 -234 0
-16 6 -17 73 -11 818 73 1572 376 2217 891 173 138 486 451 624 624 187 235
389 555 504 800 217 462 330 884 386 1433 5 42 3 57 -6 56 -7 -1 -117 -15
-244 -32z m-946 -1462 c105 -60 192 -114 192 -120 1 -17 -164 -254 -256 -369
-48 -60 -142 -165 -208 -234 -116 -120 -312 -302 -326 -302 -8 0 -338 424
-346 443 -2 7 41 54 101 107 166 147 360 373 490 572 l50 76 55 -31 c31 -18
142 -81 248 -142z m-910 -935 c133 -171 158 -207 147 -219 -7 -7 -62 -46 -122
-86 -81 -55 -111 -70 -119 -62 -6 7 -73 120 -148 251 -104 181 -135 241 -124
247 7 4 49 33 93 63 l80 54 17 -21 c9 -12 88 -114 176 -227z"/>
<path d="M6475 5575 c-121 -95 -223 -179 -228 -186 -5 -8 102 -896 257 -2129
147 -1163 271 -2157 277 -2208 7 -51 13 -91 15 -89 5 5 555 4389 552 4402 -2
7 -111 96 -243 199 l-240 186 -85 -1 -85 0 -220 -174z"/>
<path d="M6662 762 c-61 -22 -108 -62 -128 -109 -18 -42 -18 -137 0 -172 23
-43 76 -85 142 -110 210 -81 229 -95 229 -168 0 -38 -5 -49 -33 -74 -62 -56
-164 -32 -202 47 l-22 44 -64 0 c-51 0 -64 -3 -64 -15 0 -31 32 -91 68 -128
94 -97 299 -104 392 -14 43 42 60 84 60 152 0 114 -53 166 -227 226 -117 41
-163 78 -163 133 0 25 8 45 29 68 25 28 35 32 80 32 59 0 98 -23 121 -72 15
-31 17 -32 83 -32 l67 0 -6 28 c-3 15 -18 47 -33 72 -54 91 -209 134 -329 92z"/>
</g>
</svg>
