<?xml version="1.0" standalone="no"?>
<!DOCTYPE svg PUBLIC "-//W3C//DTD SVG 20010904//EN"
 "http://www.w3.org/TR/2001/REC-SVG-20010904/DTD/svg10.dtd">
<svg version="1.0" xmlns="http://www.w3.org/2000/svg"
 width="614.000000pt" height="569.000000pt" viewBox="0 0 614.000000 569.000000"
 preserveAspectRatio="xMidYMid meet">

<g transform="translate(0.000000,569.000000) scale(0.100000,-0.100000)"
fill="#000000" stroke="none">
<path d="M949 5680 c-71 -12 -117 -38 -148 -84 -16 -22 -192 -304 -391 -626
-200 -322 -373 -598 -386 -613 -13 -16 -24 -37 -24 -47 0 -15 3164 -4160 3254
-4262 30 -35 37 -38 86 -38 34 0 70 8 97 21 37 18 49 32 76 88 30 61 2514
4089 2592 4202 19 28 35 56 35 63 0 6 -179 299 -398 651 -357 574 -401 641
-427 646 -44 10 -4311 8 -4366 -1z m1770 -149 c-8 -10 -148 -207 -313 -437
-164 -231 -310 -434 -324 -452 l-24 -34 -197 194 c-108 106 -284 277 -391 379
-107 102 -233 227 -279 277 l-83 92 812 0 c794 0 812 0 799 -19z m2395 10 c15
-24 -167 -240 -480 -571 -117 -124 -239 -257 -271 -297 -32 -39 -62 -72 -68
-72 -5 -1 -106 95 -225 212 -118 116 -335 330 -481 475 l-266 262 893 0 c525
0 895 -4 898 -9z m-2074 -90 c24 -16 270 -251 548 -522 462 -452 503 -494 476
-496 -16 -1 -437 -4 -937 -5 -618 -2 -906 0 -903 7 7 20 687 970 720 1008 18
20 38 37 43 37 6 0 29 -13 53 -29z m-1914 -288 c121 -120 339 -335 485 -478
l264 -260 -780 -6 c-429 -3 -781 -5 -783 -4 -2 1 565 923 593 965 0 0 100 -98
221 -217z m4558 -538 l112 -180 -334 -3 c-183 -1 -482 -1 -664 0 l-330 3 88
105 c95 114 149 174 384 422 86 90 191 205 234 256 l79 92 160 -257 c87 -142
210 -339 271 -438z m125 -384 c-130 -216 -2155 -3488 -2158 -3485 -2 2 167
793 375 1758 l379 1756 580 3 c319 1 640 3 714 5 l133 2 -23 -39z m-1673 12
c-8 -28 -776 -3598 -776 -3608 0 -4 -2 -6 -5 -4 -2 3 -250 810 -550 1794 -300
985 -548 1798 -551 1807 -5 17 35 18 703 21 389 1 815 3 946 5 223 2 238 1
233 -15z m-1645 -1732 c291 -954 528 -1736 526 -1737 -1 -2 -600 776 -1329
1729 l-1327 1732 697 5 c383 3 744 5 801 5 l103 0 529 -1734z"/>
</g>
</svg>
