<?xml version="1.0" encoding="utf-8"?>
<svg version="1.1" id="Layer_1" xmlns="http://www.w3.org/2000/svg" xmlns:xlink="http://www.w3.org/1999/xlink" x="0px" y="0px"
	 viewBox="0 0 2699.042 1564.467" enable-background="new 0 0 2699.042 1564.467" xml:space="preserve">
<path fill="#3E2423" d="M490.238,291.901c-1.952,6.075-10.029,7.403-13.784,2.244c-35.022-48.114-104.572-43.324-134.058,5.289
	c-18.257,28.957-18.469,70.441,6.16,100.902c3.832,4.74,0.905,11.823-5.133,12.661c-366.596,50.878-363.766,680.198-0.129,729.394
	c6.046,0.818,8.983,7.886,5.17,12.649c-68.015,84.943,54.557,197.035,125.068,109.986c3.962-4.892,11.763-3.247,13.603,2.773
	c53.491,174.977,239.769,293.678,449.4,200.659c215.454-93.138,279.887-322.624,156.083-497.255
	c-4.35-6.136,1.628-14.255,8.807-12.011c47.561,14.864,94.33,24.656,123.256-16.485c6.517-9.27,12.125,3.643,29.896,5.795
	c9.102,1.102,5.32,14.071,22.5,25.022c21.662,14.637,56.372,8.604,67.864-20.354c2.429-6.121,6.097-3.004,20.227-8.991v-0.143
	c9.367,0,20.163,1.791,20.164-7.874c0.002-52.924-2.569-61.66,7.881-61.654c223.456,0.14,217.651-3.081,217.639,7.877
	c-0.215,201.715-2.739,197.281,7.848,197.284c86.261,0.023,90.382-2.555,90.432,7.744c0.139,28.653,2.085,38.308-7.879,38.296
	c-85.467-0.105-90.39-2.538-90.4,7.861c-0.271,276.906-2.816,265.204,7.81,265.216c188.227,0.215,185.273,2.677,185.273-7.941
	c0-178.689-3.01-176.749,7.915-176.7c36.502,0.165,45.618-2.42,45.606,7.883c-0.208,178.752-2.778,176.764,7.846,176.767
	c187.75,0.06,185.291,2.817,185.282-7.978c-0.225-275.881,3.093-265.076-7.905-265.091c-86.716-0.122-91.8,2.746-91.825-7.828
	c-0.069-28.506-2.197-38.445,7.955-38.344c88.06,0.868,91.802,1.87,91.784-7.9c-0.167-86.948-2.492-91.902,7.966-91.824
	c27.634,0.208,37.566-2.313,37.627,7.82c0.515,85.919-3.018,91.782,7.782,91.922c83.586,1.086,90.675-3.501,90.683,7.962
	c0.021,28.416,2.162,38.135-7.855,38.153c-85.013,0.154-90.493-2.752-90.508,7.911c-0.391,277.035-2.719,264.995,7.731,265.069
	c189.934,1.336,185.49,2.064,185.493-7.742c0.061-179.217-2.927-176.786,7.852-176.776c36.931,0.037,45.455-2.17,45.463,7.854
	c0.134,178.074-3.068,176.624,7.813,176.69c189.681,1.151,185.508,2.231,185.511-7.728c0.103-276.672,2.887-265.262-7.888-265.27
	c-87.727-0.063-92.043,2.515-92.012-7.932c0.083-27.821-2.435-38.255,7.948-38.166c88.237,0.751,91.984,2.011,91.974-7.824
	c-0.194-201.356-2.875-197.255,7.814-197.249c79.449,0.048,85.131,2.572,85.14-7.868c0.158-187.781,2.756-185.025-7.915-185.025
	c-1309.273,0-1235.877,3.848-1235.88-7.874c-0.021-70.742,4.197-63.337-19.93-63.337c0,0.071,0,0.143,0,0.214
	c-14.431-5.668-18.183-3.008-20.455-9.097c-13.666-36.619-69.524-37.647-84.219-0.004c-1.02,2.612-3.467,4.333-6.237,4.765
	c-17.982,2.805-23.594,15.025-29.985,5.832c-27.18-39.101-70.196-30.861-112.99-19.199c-7.511,2.134-12.924-5.791-9.027-11.774
	c115.508-177.332,43.138-403.319-182.106-492.551C731.135,13.691,547.549,113.493,490.238,291.901z M1224.78,723.253
	c-66.402-69.902-198.5-46.288-225.896,27.686c-5.49-22.331-17.703-42.787-34.612-58.362c47.547-6.529,96.942-59.727,101.014-61.74
	C1207.515,573.57,1220.979,608.672,1224.78,723.253z M846.266,522.762c-9.672,14.635-24.988,31.75-22.399,62.517
	c2.905,33.311,24.78,61.605,50.321,81.605c-64.817,10.667-107.25,81.969-84.865,147.45c13.277,41.605,53.108,74.443,97.297,75.693
	c-42.695,27.368-75.93,75.096-58.97,121.132c3.784,11.402,11.453,20.794,17.804,30.777c26.294-42.126,39.557-69.522,81.622-77.973
	c30.327-4.912,128.637,107.177,82.145,222.619c-55.048,139.944-318.568,251.579-416.217,52.635
	c-16.163-33.609-22.477-70.106-11.419-80.49c26.712-28.284,54.469-28.467,107.534-28.176c-6.402-15.76-14.375-31.47-27.922-42.331
	c73.229-8.686,98.876-114.258,31.52-156.943c-30.52-19.831-79.615-19.12-110.439,24.375c-4.983-20.929-14.189-41.267-28.784-57.28
	c-27.969-30.937-58.383-24.371-75.186-23.041c8.024,15.49,16.571,30.777,22.568,47.179c16.785,45.284,5.139,72.322-0.304,77.382
	c-43.8,43.19-265.887,57.117-272.585-220.153c2.867-290.703,259.974-278.077,279.747-206.504
	c10.173,37.541-17.399,82.397-29.273,106.909c10,0.541,20.017,2.483,30,1.115c39.017-4.664,63.57-41.361,73.412-79.73
	c55.213,75.919,164.925,20.124,147.027-66.791c-5.743-30.71-29.696-57.804-60.338-65.237c10.355-10.152,16.047-23.598,22.162-36.487
	c-39.969,0.106-80.746,1.246-105.912-27.297c-13.916-10.999-4.069-45.972,1.959-62.635
	c111.169-293.749,595.769-11.529,385.153,229.544c-20.603,22.531-50.369,52.549-96.605-4.544
	C863.918,554.131,855.674,538.049,846.266,522.762z M698.782,514.637c20.121,29.528,12.84,73.85-19.24,93.26
	c-61.342,38.413-124.519-48.884-74.392-101.335C630.871,478.584,676.366,481.229,698.782,514.637z M590.961,491.63
	c-4.375,4.544-7.77,9.848-11.723,14.73c-3.024-6.351-5.388-13.074-9.527-18.885C576.721,489.282,583.799,490.938,590.961,491.63z
	 M631.417,942.341c44.912-15.259,90.179,27.468,78.024,77.872c-11.127,46.932-66.479,63.707-99.528,32.753
	C574.297,1021.216,584.915,957.593,631.417,942.341z M598.681,1070.601c-11.841,0.355-23.632,2.635-34.899,6.334
	c6.841-8.851,11.807-18.885,15.98-29.223C584.61,1056.463,591.299,1063.963,598.681,1070.601z M1020.1,801.834
	c-38.709-78.491,112.284-140.056,186.098-68.007c14.51,13.868,23.21,34.916,18.632,54.95
	C1208.945,865.444,1056.407,877.209,1020.1,801.834z M1244.527,683.185c-0.296-29.592-14.136-50.789,13.497-56.976
	c0.436,23.694,0.284,283.6,0.253,302.332c-28.685-5.181-12.756-25.957-13.429-71.2
	C1245.584,768.294,1248.019,877.554,1244.527,683.185z M895.016,869.875c-73.421,2.855-117.184-85.41-74.223-146.031
	c51.457-74.449,165.64-31.918,160.338,59.612C977.968,832.568,939.4,869.091,895.016,869.875z M1385.304,853.962
	c0.017-50.625,0-101.25,0-151.875c407.737-0.017,815.491,0.169,1223.229-0.101c0.135,50.659,0,101.318,0.068,151.977
	C2200.829,853.996,1793.075,853.996,1385.304,853.962z M1631.419,874.368c52.68,0.125,752.997,0.258,884.09-0.084
	c0.287,61.537-0.169,123.091,0.237,184.646c-33.362,0.541-66.757-0.203-100.136,0.355c0.253,28.919,0,57.838,0.135,86.757
	c33.277,0.388,66.571,0.118,99.831,0.135c0.034,77.365-0.017,154.73,0.034,232.095c-50.592,0.118-101.183-0.287-151.757,0.203
	c-0.692-61.605,0-123.26-0.355-184.899c-31.52,0.219-63.057-0.169-94.578,0.203c0.084,61.503,0.051,123.007,0.017,184.51
	c-50.727-0.203-101.47,0.27-152.196-0.236c0.439-77.264,0.135-154.527,0.152-231.791c32.737-0.085,65.49-0.017,98.244-0.034
	c0.236-29.054,0.118-58.108,0.051-87.162c-32.737,0.152-65.473-0.101-98.227,0.118c0.068-33.21-0.253-66.436,0.169-99.645
	c-29.105-0.456-58.243-0.355-87.348-0.051c0.27,33.243,0.085,66.47,0.101,99.713c-33.26-0.22-66.52-0.034-99.797-0.102
	c0.084,29.037-0.085,58.091,0.084,87.129c33.26,0,66.521-0.017,99.764,0.017c0.034,77.281-0.22,154.578,0.135,231.876
	c-50.676,0.355-101.352,0-152.027,0.169c-0.186-61.521,0-123.041-0.085-184.561c-31.537-0.22-63.091-0.034-94.645-0.102
	c-0.017,61.537-0.068,123.075,0.034,184.595c-50.625,0.135-101.25-0.068-151.892,0.101c-0.152-77.382-0.017-154.764-0.068-232.146
	c32.72,0.051,65.422,0.152,98.125-0.051c0.372-28.97,0.017-57.939,0.169-86.909c-32.652-0.118-65.321-0.321-97.973,0.101
	C1630.997,997.696,1631.554,936.023,1631.419,874.368z M1347.567,928.54c-0.118-100.676,0.051-201.352-0.084-302.028
	c8.344,0.743,17.348,7.044,16.875,16.199c-0.034,90.135,0.051,180.288-0.034,270.423
	C1364.223,921.986,1355.473,927.391,1347.567,928.54z M1282.331,604.35c9.088-13.26,31.166-13.564,40.625-0.54
	c4.662,5.726,3.767,13.463,3.801,20.287c-0.173,331.418,0.369,313.069-0.591,320.153c-5.576,23.981-46.95,20.538-47.23-4.071
	C1278.546,592.563,1277.434,610.848,1282.331,604.35z M1045.253,916.733c-9.581-7.26-50.693-43.056-92.061-45.051
	c22.821-15.71,39.257-40.135,45.608-67.078c30.638,77.904,164.446,93.901,225.862,27.432c-0.819,33.542,2.507,88.062-27.888,110.439
	C1168.731,962.782,1124.063,947.021,1045.253,916.733z M527.988,1118.642c36.355-29.124,98.762-40.766,126.386-8.294
	c-53.463,1.317-74.117,18.458-91.233,38.395c-30.015,42.879,30.378,193.433,159.696,216.149
	c69.915,12.674,151.045-14.899,202.635-51.064c223.4-152.71,68.598-371.436,1.808-370.524c-39.586,5.477-56.732,24.43-81.368,58.176
	c-13.393-49.86,44.624-104.424,96.639-109.071c70.783-6.956,203.739,126.017,190.912,292.382
	c-21.571,289.83-491.535,442.088-621.859,91.487C492.699,1224.512,483.56,1154.4,527.988,1118.642z M471.231,1222.848
	c-8.341,46.72-63.132,68.343-98.784,37.213c-37.981-32.25-26.051-97.285,20.811-112.044
	C437.631,1133.342,480.947,1175.438,471.231,1222.848z M493.917,1124.909c-7.568,10.963-13.21,23.378-15.051,36.655
	c-6.672-9.51-14.95-17.787-24.578-24.324C467.853,1134.419,481.163,1130.314,493.917,1124.909z M543.039,486.343
	c42.568,42.353,25.563,158.69-31.352,173.615c12.044-26.047,22.314-54.865,17.686-83.987c-2.719-11.351-4.155-24.003-12.534-32.889
	c-53.671-58.996-304.915-64.744-309.409,234.916c3.298,296.35,256.305,295.398,309.983,233.767
	c9.328-10.371,25.813-48.797-5.76-116.217c49.547,12.243,70.426,105.097,43.395,157.078
	c-34.228,68.872-231.807,122.867-364.595-7.348C14.762,875.309,69.077,453.651,362.515,431.647
	C426.138,427.86,498.167,441.165,543.039,486.343z M479.238,393.066c1.571,12.534,4.764,24.966,10.98,35.997
	c-11.639-4.763-23.801-8.108-36.031-11.081C464.288,411.681,472.566,402.88,479.238,393.066z M413.596,410.008
	c-52.575,3.377-84.258-64.186-48.851-106.706c22.902-28.04,64.392-30.097,89.679-3.598
	C492.77,339.514,466.015,409.234,413.596,410.008z M1103.04,269.518c109.659,204.255-80.968,452.155-197.061,392.805
	c-36.517-18.587-71.122-59.834-59.561-99.156c15.27,22.466,33.666,45.591,60.49,54.257c15.286,3.855,31.442,14.661,68.48-19.071
	c119.696-112.699,82.298-307.002-119.865-384.207c-225.11-83.655-327.389,147.165-290.879,199.696
	c17.227,20.489,36.652,36.664,90.71,39.274c-28.896,33.891-97.859,19.099-133.615-16.216
	c-55.24-54.888-10.633-217.688,104.139-299.511C800.134,12.159,1028.649,128.185,1103.04,269.518z"/>
</svg>
